<svg xmlns="http://www.w3.org/2000/svg" viewBox="0 0 17 12.97"><g data-name="Layer 2"><path fill="#6c6c75" d="M15 4.66V1.59A1.59 1.59 0 0 0 13.41 0H3.58A1.58 1.58 0 0 0 2 1.58v3.08a2.21 2.21 0 0 0-2 2.15v2.1a2.3 2.3 0 0 0 2 2.28v1.28a.5.5 0 1 0 1 0V11h11v1.46a.5.5 0 1 0 1 0v-1.25a2.27 2.27 0 0 0 2-2.25V6.81a2.21 2.21 0 0 0-2-2.15zM3.58 1h9.83a.58.58 0 0 1 .58.58V5H13V2.69a.69.69 0 0 0-.69-.69H9.69a.69.69 0 0 0-.69.69V5H8V2.69A.69.69 0 0 0 7.31 2H4.69a.69.69 0 0 0-.69.69V5H3V1.58A.58.58 0 0 1 3.58 1zM12 5h-2V3h2zM7 5H5V3h2zm7.83 5H2.17A1.17 1.17 0 0 1 1 8.83V7.17A1.17 1.17 0 0 1 2.17 6h12.66A1.17 1.17 0 0 1 16 7.17v1.66A1.17 1.17 0 0 1 14.83 10z" data-name="Layer 1"/></g></svg>