<svg xmlns="http://www.w3.org/2000/svg" width="14" height="16" viewBox="0 0 14 16"><g fill="#FFF"><path d="M1.208 7.322C.616 6.81.58 6 1.097 5.45l.11-.106L6.591.676C7.182.163 8.119.13 8.753.579l.123.097 5.383 4.667c.63.547.63 1.433 0 1.98-.592.512-1.528.543-2.162.095l-.123-.096-4.241-3.675-4.24 3.675c-.592.512-1.528.545-2.162.096l-.123-.096z" transform="translate(-.733)"/><path d="M1.207 15.324C.615 14.81.578 14 1.095 13.45l.111-.106 5.385-4.667c.591-.513 1.528-.545 2.162-.096l.123.096 5.384 4.667c.631.547.63 1.433 0 1.98-.592.512-1.528.544-2.162.095l-.123-.096-4.242-3.676-4.241 3.676c-.592.513-1.528.545-2.162.097l-.123-.096z" opacity=".5" transform="translate(-.733)"/></g></svg>